<?xml version="1.0" encoding="UTF-8"?>
<svg xmlns="http://www.w3.org/2000/svg" width="723" height="69">
   <defs>
      <style type="text/css">
    @namespace "http://www.w3.org/2000/svg";
    .line                 {fill: none; stroke: #332900; stroke-width: 1;}
    .bold-line            {stroke: #141000; shape-rendering: crispEdges; stroke-width: 2;}
    .thin-line            {stroke: #1F1800; shape-rendering: crispEdges}
    .filled               {fill: #332900; stroke: none;}
    text.terminal         {font-family: Verdana, Sans-serif;
                            font-size: 12px;
                            fill: #141000;
                            font-weight: bold;
                          }
    text.nonterminal      {font-family: Verdana, Sans-serif;
                            font-size: 12px;
                            fill: #1A1400;
                            font-weight: normal;
                          }
    text.regexp           {font-family: Verdana, Sans-serif;
                            font-size: 12px;
                            fill: #1F1800;
                            font-weight: normal;
                          }
    rect, circle, polygon {fill: #332900; stroke: #332900;}
    rect.terminal         {fill: #FFDB4D; stroke: #332900; stroke-width: 1;}
    rect.nonterminal      {fill: #FFEC9E; stroke: #332900; stroke-width: 1;}
    rect.text             {fill: none; stroke: none;}
    polygon.regexp        {fill: #FFF4C7; stroke: #332900; stroke-width: 1;}
  </style>
   </defs>
   <polygon points="9 17 1 13 1 21"/>
   <polygon points="17 17 9 13 9 21"/>
   <rect x="31" y="3" width="38" height="32" rx="10"/>
   <rect x="29"
         y="1"
         width="38"
         height="32"
         class="terminal"
         rx="10"/>
   <text class="terminal" x="39" y="21">for</text>
   <rect x="89" y="3" width="26" height="32" rx="10"/>
   <rect x="87"
         y="1"
         width="26"
         height="32"
         class="terminal"
         rx="10"/>
   <text class="terminal" x="97" y="21">(</text>
   <a xmlns:xlink="http://www.w3.org/1999/xlink"
      xlink:href="#for_init"
      xlink:title="for_init">
      <rect x="135" y="3" width="64" height="32"/>
      <rect x="133" y="1" width="64" height="32" class="nonterminal"/>
      <text class="nonterminal" x="143" y="21">for_init</text>
   </a>
   <a xmlns:xlink="http://www.w3.org/1999/xlink"
      xlink:href="#expression"
      xlink:title="expression">
      <rect x="239" y="35" width="90" height="32"/>
      <rect x="237" y="33" width="90" height="32" class="nonterminal"/>
      <text class="nonterminal" x="247" y="53">expression</text>
   </a>
   <rect x="369" y="3" width="24" height="32" rx="10"/>
   <rect x="367"
         y="1"
         width="24"
         height="32"
         class="terminal"
         rx="10"/>
   <text class="terminal" x="377" y="21">;</text>
   <a xmlns:xlink="http://www.w3.org/1999/xlink"
      xlink:href="#expression"
      xlink:title="expression">
      <rect x="433" y="35" width="90" height="32"/>
      <rect x="431" y="33" width="90" height="32" class="nonterminal"/>
      <text class="nonterminal" x="441" y="53">expression</text>
   </a>
   <rect x="563" y="3" width="26" height="32" rx="10"/>
   <rect x="561"
         y="1"
         width="26"
         height="32"
         class="terminal"
         rx="10"/>
   <text class="terminal" x="571" y="21">)</text>
   <a xmlns:xlink="http://www.w3.org/1999/xlink"
      xlink:href="#statement"
      xlink:title="statement">
      <rect x="609" y="3" width="86" height="32"/>
      <rect x="607" y="1" width="86" height="32" class="nonterminal"/>
      <text class="nonterminal" x="617" y="21">statement</text>
   </a>
   <path class="line"
         d="m17 17 h2 m0 0 h10 m38 0 h10 m0 0 h10 m26 0 h10 m0 0 h10 m64 0 h10 m20 0 h10 m0 0 h100 m-130 0 h20 m110 0 h20 m-150 0 q10 0 10 10 m130 0 q0 -10 10 -10 m-140 10 v12 m130 0 v-12 m-130 12 q0 10 10 10 m110 0 q10 0 10 -10 m-120 10 h10 m90 0 h10 m20 -32 h10 m24 0 h10 m20 0 h10 m0 0 h100 m-130 0 h20 m110 0 h20 m-150 0 q10 0 10 10 m130 0 q0 -10 10 -10 m-140 10 v12 m130 0 v-12 m-130 12 q0 10 10 10 m110 0 q10 0 10 -10 m-120 10 h10 m90 0 h10 m20 -32 h10 m26 0 h10 m0 0 h10 m86 0 h10 m3 0 h-3"/>
   <polygon points="713 17 721 13 721 21"/>
   <polygon points="713 17 705 13 705 21"/>
</svg>
