<?xml version="1.0" encoding="UTF-8"?>
<svg xmlns="http://www.w3.org/2000/svg" width="209" height="389">
   <defs>
      <style type="text/css">
    @namespace "http://www.w3.org/2000/svg";
    .line                 {fill: none; stroke: #332900; stroke-width: 1;}
    .bold-line            {stroke: #141000; shape-rendering: crispEdges; stroke-width: 2;}
    .thin-line            {stroke: #1F1800; shape-rendering: crispEdges}
    .filled               {fill: #332900; stroke: none;}
    text.terminal         {font-family: Verdana, Sans-serif;
                            font-size: 12px;
                            fill: #141000;
                            font-weight: bold;
                          }
    text.nonterminal      {font-family: Verdana, Sans-serif;
                            font-size: 12px;
                            fill: #1A1400;
                            font-weight: normal;
                          }
    text.regexp           {font-family: Verdana, Sans-serif;
                            font-size: 12px;
                            fill: #1F1800;
                            font-weight: normal;
                          }
    rect, circle, polygon {fill: #332900; stroke: #332900;}
    rect.terminal         {fill: #FFDB4D; stroke: #332900; stroke-width: 1;}
    rect.nonterminal      {fill: #FFEC9E; stroke: #332900; stroke-width: 1;}
    rect.text             {fill: none; stroke: none;}
    polygon.regexp        {fill: #FFF4C7; stroke: #332900; stroke-width: 1;}
  </style>
   </defs>
   <polygon points="9 17 1 13 1 21"/>
   <polygon points="17 17 9 13 9 21"/>
   <a xmlns:xlink="http://www.w3.org/1999/xlink"
      xlink:href="#block"
      xlink:title="block">
      <rect x="51" y="3" width="52" height="32"/>
      <rect x="49" y="1" width="52" height="32" class="nonterminal"/>
      <text class="nonterminal" x="59" y="21">block</text>
   </a>
   <a xmlns:xlink="http://www.w3.org/1999/xlink"
      xlink:href="#if_stmt"
      xlink:title="if_stmt">
      <rect x="51" y="47" width="64" height="32"/>
      <rect x="49" y="45" width="64" height="32" class="nonterminal"/>
      <text class="nonterminal" x="59" y="65">if_stmt</text>
   </a>
   <a xmlns:xlink="http://www.w3.org/1999/xlink"
      xlink:href="#while_stmt"
      xlink:title="while_stmt">
      <rect x="51" y="91" width="88" height="32"/>
      <rect x="49" y="89" width="88" height="32" class="nonterminal"/>
      <text class="nonterminal" x="59" y="109">while_stmt</text>
   </a>
   <a xmlns:xlink="http://www.w3.org/1999/xlink"
      xlink:href="#for_stmt"
      xlink:title="for_stmt">
      <rect x="51" y="135" width="74" height="32"/>
      <rect x="49" y="133" width="74" height="32" class="nonterminal"/>
      <text class="nonterminal" x="59" y="153">for_stmt</text>
   </a>
   <a xmlns:xlink="http://www.w3.org/1999/xlink"
      xlink:href="#return_stmt"
      xlink:title="return_stmt">
      <rect x="51" y="179" width="96" height="32"/>
      <rect x="49" y="177" width="96" height="32" class="nonterminal"/>
      <text class="nonterminal" x="59" y="197">return_stmt</text>
   </a>
   <a xmlns:xlink="http://www.w3.org/1999/xlink"
      xlink:href="#break_stmt"
      xlink:title="break_stmt">
      <rect x="51" y="223" width="92" height="32"/>
      <rect x="49" y="221" width="92" height="32" class="nonterminal"/>
      <text class="nonterminal" x="59" y="241">break_stmt</text>
   </a>
   <a xmlns:xlink="http://www.w3.org/1999/xlink"
      xlink:href="#continue_stmt"
      xlink:title="continue_stmt">
      <rect x="51" y="267" width="110" height="32"/>
      <rect x="49" y="265" width="110" height="32" class="nonterminal"/>
      <text class="nonterminal" x="59" y="285">continue_stmt</text>
   </a>
   <a xmlns:xlink="http://www.w3.org/1999/xlink"
      xlink:href="#var_decl"
      xlink:title="var_decl">
      <rect x="51" y="311" width="74" height="32"/>
      <rect x="49" y="309" width="74" height="32" class="nonterminal"/>
      <text class="nonterminal" x="59" y="329">var_decl</text>
   </a>
   <a xmlns:xlink="http://www.w3.org/1999/xlink"
      xlink:href="#expr_stmt"
      xlink:title="expr_stmt">
      <rect x="51" y="355" width="84" height="32"/>
      <rect x="49" y="353" width="84" height="32" class="nonterminal"/>
      <text class="nonterminal" x="59" y="373">expr_stmt</text>
   </a>
   <path class="line"
         d="m17 17 h2 m20 0 h10 m52 0 h10 m0 0 h58 m-150 0 h20 m130 0 h20 m-170 0 q10 0 10 10 m150 0 q0 -10 10 -10 m-160 10 v24 m150 0 v-24 m-150 24 q0 10 10 10 m130 0 q10 0 10 -10 m-140 10 h10 m64 0 h10 m0 0 h46 m-140 -10 v20 m150 0 v-20 m-150 20 v24 m150 0 v-24 m-150 24 q0 10 10 10 m130 0 q10 0 10 -10 m-140 10 h10 m88 0 h10 m0 0 h22 m-140 -10 v20 m150 0 v-20 m-150 20 v24 m150 0 v-24 m-150 24 q0 10 10 10 m130 0 q10 0 10 -10 m-140 10 h10 m74 0 h10 m0 0 h36 m-140 -10 v20 m150 0 v-20 m-150 20 v24 m150 0 v-24 m-150 24 q0 10 10 10 m130 0 q10 0 10 -10 m-140 10 h10 m96 0 h10 m0 0 h14 m-140 -10 v20 m150 0 v-20 m-150 20 v24 m150 0 v-24 m-150 24 q0 10 10 10 m130 0 q10 0 10 -10 m-140 10 h10 m92 0 h10 m0 0 h18 m-140 -10 v20 m150 0 v-20 m-150 20 v24 m150 0 v-24 m-150 24 q0 10 10 10 m130 0 q10 0 10 -10 m-140 10 h10 m110 0 h10 m-140 -10 v20 m150 0 v-20 m-150 20 v24 m150 0 v-24 m-150 24 q0 10 10 10 m130 0 q10 0 10 -10 m-140 10 h10 m74 0 h10 m0 0 h36 m-140 -10 v20 m150 0 v-20 m-150 20 v24 m150 0 v-24 m-150 24 q0 10 10 10 m130 0 q10 0 10 -10 m-140 10 h10 m84 0 h10 m0 0 h26 m23 -352 h-3"/>
   <polygon points="199 17 207 13 207 21"/>
   <polygon points="199 17 191 13 191 21"/>
</svg>
